<?xml version="1.0" encoding="iso-8859-1"?>
<!-- Uploaded to: SVG Repo, www.svgrepo.com, Generator: SVG Repo Mixer Tools -->
<svg height="800px" width="800px" version="1.1" id="Capa_1" xmlns="http://www.w3.org/2000/svg" xmlns:xlink="http://www.w3.org/1999/xlink" 
	 viewBox="0 0 57.801 57.801" xml:space="preserve">
<g>
	<path style="fill:#010002;" d="M50.862,9.077c0.935-0.95,1.87-1.901,2.806-2.851c0.361-0.368-0.203-0.934-0.566-0.566
		c-0.936,0.95-1.87,1.901-2.805,2.851C49.935,8.879,50.5,9.445,50.862,9.077L50.862,9.077z"/>
	<path style="fill:#010002;" d="M27.134,30.035c-0.416-1.226-0.832-2.452-1.249-3.678c-0.08-0.236-0.456-0.135-0.375,0.103
		c0.416,1.226,0.832,2.451,1.248,3.677c-0.188,0.116-0.319,0.314-0.319,0.552c0,0.101,0.027,0.194,0.067,0.279
		c-0.928,0.906-1.854,1.812-2.782,2.717c-0.196,0.192,0.104,0.492,0.3,0.301c0.927-0.904,1.853-1.81,2.78-2.715
		c0.09,0.046,0.188,0.078,0.295,0.078c0.364,0,0.66-0.296,0.66-0.66C27.76,30.335,27.482,30.054,27.134,30.035z"/>
	<path style="fill:#010002;" d="M53.367,12.568l4.434-4.514l-6.796-6.677l-4.434,4.514l0.725,0.712L32.354,20.832l-0.844-0.864
		L29,22.418c-0.518-0.104-1.053-0.16-1.602-0.16c-1.12,0-2.187,0.227-3.158,0.636l-0.722-0.739l0.385-0.375
		c0.11-0.107,0.145-0.25,0.078-0.319l-0.158-0.162c-0.067-0.069-0.211-0.037-0.321,0.07l-0.916,0.894
		c-0.11,0.107-0.145,0.25-0.078,0.319l0.158,0.162c0.067,0.069,0.211,0.037,0.321-0.07l0.305-0.298l0.647,0.663
		c-0.507,0.239-0.984,0.527-1.427,0.861l-0.441-0.452c-0.188-0.193-0.43-0.262-0.54-0.155l-0.915,0.893
		c-0.11,0.108-0.046,0.351,0.142,0.544l0.417,0.428c-0.38,0.451-0.711,0.945-0.987,1.472l-0.61-0.625l0.384-0.375
		c0.11-0.107,0.145-0.25,0.078-0.319l-0.158-0.162c-0.067-0.069-0.211-0.037-0.321,0.07l-0.916,0.894
		c-0.11,0.107-0.145,0.25-0.078,0.319l0.158,0.162c0.067,0.069,0.211,0.037,0.321-0.07l0.305-0.298l0.691,0.708
		c-0.497,1.052-0.783,2.223-0.783,3.464c0,0.48,0.05,0.949,0.13,1.407l-1.675,1.636l0.775,0.794L1.311,50.038
		c0,0-2.571,3.225-0.511,5.462c2.02,2.196,5.653-0.211,5.653-0.211L23.624,39.49l0.505,0.518l1.672-1.633
		c0.517,0.104,1.051,0.159,1.598,0.159c4.495,0,8.138-3.644,8.138-8.139c0-0.479-0.05-0.945-0.129-1.401l2.517-2.457l-0.439-0.45
		l15.043-14.344L53.367,12.568z M7.249,50.456c-0.405,0.298-0.975,0.214-1.273-0.188c-0.298-0.4-0.211-0.967,0.194-1.266
		c0.405-0.297,0.975-0.213,1.273,0.188S7.654,50.158,7.249,50.456z M9.439,48.768c-0.402,0.304-0.984,0.197-1.299-0.239
		c-0.315-0.435-0.245-1.034,0.157-1.338s0.983-0.197,1.299,0.239C9.911,47.865,9.841,48.464,9.439,48.768z M11.58,46.827
		c-0.37,0.341-0.949,0.314-1.292-0.059s-0.321-0.951,0.049-1.292s0.949-0.314,1.292,0.059S11.95,46.487,11.58,46.827z
		 M13.607,44.962c-0.37,0.342-0.949,0.314-1.292-0.059s-0.321-0.951,0.049-1.292s0.949-0.314,1.292,0.059
		C13.999,44.044,13.977,44.622,13.607,44.962z M19.014,33.454l0.624-0.609c0.303,0.96,0.781,1.84,1.393,2.609l-1.772-1.927
		l-0.091,0.084L19.014,33.454z M24.145,38.709l-2.073-2.123L21.809,36.3c0.84,0.796,1.848,1.412,2.967,1.794L24.145,38.709z
		 M27.218,37.496c-3.936,0-7.137-3.201-7.137-7.137s3.201-7.137,7.137-7.137s7.138,3.202,7.138,7.137S31.154,37.496,27.218,37.496z
		 M30.026,22.7l1.469-1.434l0.194,0.199l-0.395,0.376l4.859,5.142l-0.992,0.969C34.386,25.486,32.466,23.533,30.026,22.7z
		 M47.795,5.88l3.221-3.277l5.56,5.462l-3.221,3.277l-0.2-0.197l0.302-0.288l-5.061-5.302l-0.473,0.45L47.795,5.88z"/>
</g>
</svg>